<svg xmlns="http://www.w3.org/2000/svg" viewBox="0 0 1920 1080"><g transform="
          rotate(1 960 540) 
          translate(-29.639227669766115 -16.67206556424344)
          scale(1.0308741954893397)
        "><rect width="1920" height="1080" fill="rgb(26, 26, 26)"></rect><g transform="translate(0, 0)"><path fill="rgb(36, 36, 36)" fill-opacity="1" d="M0,105.883L17.778,105.023C35.556,104.162,71.111,102.441,106.667,102.174C142.222,101.908,177.778,103.095,213.333,103.228C248.889,103.362,284.444,102.442,320,90.955C355.556,79.468,391.111,57.415,426.667,55.552C462.222,53.69,497.778,72.018,533.333,66.401C568.889,60.783,604.444,31.221,640,29.544C675.556,27.868,711.111,54.077,746.667,60.606C782.222,67.134,817.778,53.981,853.333,41.807C888.889,29.632,924.444,18.437,960,24.216C995.556,29.995,1031.111,52.749,1066.667,56.851C1102.222,60.954,1137.778,46.406,1173.333,39.124C1208.889,31.842,1244.444,31.827,1280,42.382C1315.556,52.937,1351.111,74.063,1386.667,85.409C1422.222,96.755,1457.778,98.322,1493.333,85.402C1528.889,72.483,1564.444,45.079,1600,33.787C1635.556,22.495,1671.111,27.316,1706.667,37.882C1742.222,48.448,1777.778,64.76,1813.333,76.299C1848.889,87.838,1884.444,94.605,1902.222,97.988L1920,101.372L1920,1080L1902.222,1080C1884.444,1080,1848.889,1080,1813.333,1080C1777.778,1080,1742.222,1080,1706.667,1080C1671.111,1080,1635.556,1080,1600,1080C1564.444,1080,1528.889,1080,1493.333,1080C1457.778,1080,1422.222,1080,1386.667,1080C1351.111,1080,1315.556,1080,1280,1080C1244.444,1080,1208.889,1080,1173.333,1080C1137.778,1080,1102.222,1080,1066.667,1080C1031.111,1080,995.556,1080,960,1080C924.444,1080,888.889,1080,853.333,1080C817.778,1080,782.222,1080,746.667,1080C711.111,1080,675.556,1080,640,1080C604.444,1080,568.889,1080,533.333,1080C497.778,1080,462.222,1080,426.667,1080C391.111,1080,355.556,1080,320,1080C284.444,1080,248.889,1080,213.333,1080C177.778,1080,142.222,1080,106.667,1080C71.111,1080,35.556,1080,17.778,1080L0,1080Z"></path></g><g transform="translate(0, 108)"><path fill="rgb(47, 47, 47)" fill-opacity="1" d="M0,54.368L17.778,46.26C35.556,38.152,71.111,21.937,106.667,13.009C142.222,4.082,177.778,2.442,213.333,12.324C248.889,22.205,284.444,43.607,320,50.335C355.556,57.062,391.111,49.114,426.667,40.853C462.222,32.592,497.778,24.019,533.333,21.677C568.889,19.334,604.444,23.224,640,25.982C675.556,28.741,711.111,30.37,746.667,39.917C782.222,49.464,817.778,66.93,853.333,78.825C888.889,90.72,924.444,97.043,960,100.835C995.556,104.628,1031.111,105.891,1066.667,98.587C1102.222,91.284,1137.778,75.414,1173.333,62.788C1208.889,50.162,1244.444,40.78,1280,32.591C1315.556,24.402,1351.111,17.407,1386.667,27.742C1422.222,38.077,1457.778,65.744,1493.333,81.65C1528.889,97.557,1564.444,101.704,1600,103.924C1635.556,106.145,1671.111,106.439,1706.667,100.284C1742.222,94.13,1777.778,81.526,1813.333,73.655C1848.889,65.785,1884.444,62.647,1902.222,61.079L1920,59.51L1920,972L1902.222,972C1884.444,972,1848.889,972,1813.333,972C1777.778,972,1742.222,972,1706.667,972C1671.111,972,1635.556,972,1600,972C1564.444,972,1528.889,972,1493.333,972C1457.778,972,1422.222,972,1386.667,972C1351.111,972,1315.556,972,1280,972C1244.444,972,1208.889,972,1173.333,972C1137.778,972,1102.222,972,1066.667,972C1031.111,972,995.556,972,960,972C924.444,972,888.889,972,853.333,972C817.778,972,782.222,972,746.667,972C711.111,972,675.556,972,640,972C604.444,972,568.889,972,533.333,972C497.778,972,462.222,972,426.667,972C391.111,972,355.556,972,320,972C284.444,972,248.889,972,213.333,972C177.778,972,142.222,972,106.667,972C71.111,972,35.556,972,17.778,972L0,972Z"></path></g><g transform="translate(0, 216)"><path fill="rgb(57, 57, 57)" fill-opacity="1" d="M0,30.462L17.778,42.952C35.556,55.441,71.111,80.42,106.667,90.836C142.222,101.253,177.778,97.107,213.333,95.929C248.889,94.75,284.444,96.539,320,94.464C355.556,92.389,391.111,86.451,426.667,71.637C462.222,56.823,497.778,33.133,533.333,35.969C568.889,38.806,604.444,68.17,640,74.842C675.556,81.513,711.111,65.492,746.667,51.869C782.222,38.246,817.778,27.021,853.333,26.789C888.889,26.558,924.444,37.32,960,52.318C995.556,67.316,1031.111,86.548,1066.667,87.702C1102.222,88.855,1137.778,71.93,1173.333,61.956C1208.889,51.982,1244.444,48.96,1280,40.929C1315.556,32.898,1351.111,19.858,1386.667,13.184C1422.222,6.509,1457.778,6.2,1493.333,12.071C1528.889,17.943,1564.444,29.994,1600,46.327C1635.556,62.66,1671.111,83.275,1706.667,90.265C1742.222,97.255,1777.778,90.621,1813.333,75.765C1848.889,60.909,1884.444,37.833,1902.222,26.295L1920,14.756L1920,864L1902.222,864C1884.444,864,1848.889,864,1813.333,864C1777.778,864,1742.222,864,1706.667,864C1671.111,864,1635.556,864,1600,864C1564.444,864,1528.889,864,1493.333,864C1457.778,864,1422.222,864,1386.667,864C1351.111,864,1315.556,864,1280,864C1244.444,864,1208.889,864,1173.333,864C1137.778,864,1102.222,864,1066.667,864C1031.111,864,995.556,864,960,864C924.444,864,888.889,864,853.333,864C817.778,864,782.222,864,746.667,864C711.111,864,675.556,864,640,864C604.444,864,568.889,864,533.333,864C497.778,864,462.222,864,426.667,864C391.111,864,355.556,864,320,864C284.444,864,248.889,864,213.333,864C177.778,864,142.222,864,106.667,864C71.111,864,35.556,864,17.778,864L0,864Z"></path></g><g transform="translate(0, 324)"><path fill="rgb(68, 68, 68)" fill-opacity="1" d="M0,101.022L17.778,91.136C35.556,81.25,71.111,61.479,106.667,56.845C142.222,52.211,177.778,62.715,213.333,63.362C248.889,64.009,284.444,54.8,320,55.881C355.556,56.963,391.111,68.337,426.667,73.869C462.222,79.401,497.778,79.093,533.333,73.786C568.889,68.48,604.444,58.176,640,55.203C675.556,52.229,711.111,56.587,746.667,58.717C782.222,60.847,817.778,60.749,853.333,59.689C888.889,58.629,924.444,56.607,960,54.833C995.556,53.059,1031.111,51.532,1066.667,44.268C1102.222,37.003,1137.778,24.002,1173.333,16.237C1208.889,8.473,1244.444,5.947,1280,9.555C1315.556,13.162,1351.111,22.903,1386.667,29.026C1422.222,35.15,1457.778,37.656,1493.333,38.224C1528.889,38.792,1564.444,37.422,1600,40.623C1635.556,43.825,1671.111,51.598,1706.667,57.199C1742.222,62.801,1777.778,66.23,1813.333,71.598C1848.889,76.967,1884.444,84.275,1902.222,87.929L1920,91.583L1920,756L1902.222,756C1884.444,756,1848.889,756,1813.333,756C1777.778,756,1742.222,756,1706.667,756C1671.111,756,1635.556,756,1600,756C1564.444,756,1528.889,756,1493.333,756C1457.778,756,1422.222,756,1386.667,756C1351.111,756,1315.556,756,1280,756C1244.444,756,1208.889,756,1173.333,756C1137.778,756,1102.222,756,1066.667,756C1031.111,756,995.556,756,960,756C924.444,756,888.889,756,853.333,756C817.778,756,782.222,756,746.667,756C711.111,756,675.556,756,640,756C604.444,756,568.889,756,533.333,756C497.778,756,462.222,756,426.667,756C391.111,756,355.556,756,320,756C284.444,756,248.889,756,213.333,756C177.778,756,142.222,756,106.667,756C71.111,756,35.556,756,17.778,756L0,756Z"></path></g><g transform="translate(0, 432)"><path fill="rgb(78, 78, 78)" fill-opacity="1" d="M0,62.171L17.778,56.936C35.556,51.7,71.111,41.229,106.667,41.49C142.222,41.751,177.778,52.744,213.333,50.998C248.889,49.252,284.444,34.766,320,38.697C355.556,42.629,391.111,64.978,426.667,69.364C462.222,73.751,497.778,60.176,533.333,63.201C568.889,66.225,604.444,85.849,640,94.119C675.556,102.39,711.111,99.307,746.667,90.654C782.222,82.001,817.778,67.777,853.333,66.904C888.889,66.032,924.444,78.51,960,77.485C995.556,76.46,1031.111,61.931,1066.667,55.957C1102.222,49.983,1137.778,52.563,1173.333,46.912C1208.889,41.26,1244.444,27.378,1280,29.636C1315.556,31.895,1351.111,50.295,1386.667,48.07C1422.222,45.845,1457.778,22.995,1493.333,19.49C1528.889,15.986,1564.444,31.828,1600,46.477C1635.556,61.126,1671.111,74.582,1706.667,66.844C1742.222,59.105,1777.778,30.17,1813.333,28.564C1848.889,26.957,1884.444,52.678,1902.222,65.539L1920,78.399L1920,648L1902.222,648C1884.444,648,1848.889,648,1813.333,648C1777.778,648,1742.222,648,1706.667,648C1671.111,648,1635.556,648,1600,648C1564.444,648,1528.889,648,1493.333,648C1457.778,648,1422.222,648,1386.667,648C1351.111,648,1315.556,648,1280,648C1244.444,648,1208.889,648,1173.333,648C1137.778,648,1102.222,648,1066.667,648C1031.111,648,995.556,648,960,648C924.444,648,888.889,648,853.333,648C817.778,648,782.222,648,746.667,648C711.111,648,675.556,648,640,648C604.444,648,568.889,648,533.333,648C497.778,648,462.222,648,426.667,648C391.111,648,355.556,648,320,648C284.444,648,248.889,648,213.333,648C177.778,648,142.222,648,106.667,648C71.111,648,35.556,648,17.778,648L0,648Z"></path></g><g transform="translate(0, 540)"><path fill="rgb(88, 88, 88)" fill-opacity="1" d="M0,25.626L17.778,29.84C35.556,34.053,71.111,42.479,106.667,44.983C142.222,47.486,177.778,44.067,213.333,50.547C248.889,57.028,284.444,73.408,320,68.067C355.556,62.726,391.111,35.664,426.667,33.996C462.222,32.327,497.778,56.052,533.333,63.805C568.889,71.558,604.444,63.34,640,66.301C675.556,69.262,711.111,83.403,746.667,83.599C782.222,83.795,817.778,70.046,853.333,54.582C888.889,39.117,924.444,21.936,960,20.595C995.556,19.254,1031.111,33.753,1066.667,48.718C1102.222,63.682,1137.778,79.111,1173.333,74.745C1208.889,70.379,1244.444,46.219,1280,34.549C1315.556,22.88,1351.111,23.7,1386.667,33.482C1422.222,43.264,1457.778,62.007,1493.333,74.398C1528.889,86.789,1564.444,92.828,1600,88.209C1635.556,83.591,1671.111,68.315,1706.667,67.18C1742.222,66.046,1777.778,79.052,1813.333,78.68C1848.889,78.308,1884.444,64.556,1902.222,57.68L1920,50.805L1920,540L1902.222,540C1884.444,540,1848.889,540,1813.333,540C1777.778,540,1742.222,540,1706.667,540C1671.111,540,1635.556,540,1600,540C1564.444,540,1528.889,540,1493.333,540C1457.778,540,1422.222,540,1386.667,540C1351.111,540,1315.556,540,1280,540C1244.444,540,1208.889,540,1173.333,540C1137.778,540,1102.222,540,1066.667,540C1031.111,540,995.556,540,960,540C924.444,540,888.889,540,853.333,540C817.778,540,782.222,540,746.667,540C711.111,540,675.556,540,640,540C604.444,540,568.889,540,533.333,540C497.778,540,462.222,540,426.667,540C391.111,540,355.556,540,320,540C284.444,540,248.889,540,213.333,540C177.778,540,142.222,540,106.667,540C71.111,540,35.556,540,17.778,540L0,540Z"></path></g><g transform="translate(0, 648)"><path fill="rgb(99, 99, 99)" fill-opacity="1" d="M0,85.916L17.778,82.868C35.556,79.82,71.111,73.723,106.667,65.323C142.222,56.923,177.778,46.218,213.333,40.045C248.889,33.871,284.444,32.229,320,27.164C355.556,22.098,391.111,13.61,426.667,23.924C462.222,34.238,497.778,63.355,533.333,79.601C568.889,95.847,604.444,99.222,640,86.749C675.556,74.276,711.111,45.954,746.667,31.56C782.222,17.166,817.778,16.7,853.333,15.494C888.889,14.288,924.444,12.342,960,15.129C995.556,17.916,1031.111,25.434,1066.667,29.978C1102.222,34.522,1137.778,36.092,1173.333,34.64C1208.889,33.189,1244.444,28.717,1280,26.129C1315.556,23.541,1351.111,22.838,1386.667,27.392C1422.222,31.945,1457.778,41.755,1493.333,49.91C1528.889,58.065,1564.444,64.565,1600,73.805C1635.556,83.045,1671.111,95.025,1706.667,86.065C1742.222,77.105,1777.778,47.205,1813.333,32.359C1848.889,17.512,1884.444,17.719,1902.222,17.822L1920,17.926L1920,432L1902.222,432C1884.444,432,1848.889,432,1813.333,432C1777.778,432,1742.222,432,1706.667,432C1671.111,432,1635.556,432,1600,432C1564.444,432,1528.889,432,1493.333,432C1457.778,432,1422.222,432,1386.667,432C1351.111,432,1315.556,432,1280,432C1244.444,432,1208.889,432,1173.333,432C1137.778,432,1102.222,432,1066.667,432C1031.111,432,995.556,432,960,432C924.444,432,888.889,432,853.333,432C817.778,432,782.222,432,746.667,432C711.111,432,675.556,432,640,432C604.444,432,568.889,432,533.333,432C497.778,432,462.222,432,426.667,432C391.111,432,355.556,432,320,432C284.444,432,248.889,432,213.333,432C177.778,432,142.222,432,106.667,432C71.111,432,35.556,432,17.778,432L0,432Z"></path></g><g transform="translate(0, 756)"><path fill="rgb(109, 109, 109)" fill-opacity="1" d="M0,20.507L17.778,31.668C35.556,42.828,71.111,65.149,106.667,71.832C142.222,78.515,177.778,69.559,213.333,65.359C248.889,61.158,284.444,61.712,320,57.269C355.556,52.827,391.111,43.386,426.667,50.225C462.222,57.063,497.778,80.18,533.333,74.565C568.889,68.949,604.444,34.601,640,24.05C675.556,13.5,711.111,26.748,746.667,27.89C782.222,29.032,817.778,18.068,853.333,23.302C888.889,28.536,924.444,49.967,960,57.136C995.556,64.305,1031.111,57.21,1066.667,46.898C1102.222,36.585,1137.778,23.055,1173.333,24.009C1208.889,24.963,1244.444,40.402,1280,46.682C1315.556,52.961,1351.111,50.082,1386.667,55.303C1422.222,60.524,1457.778,73.847,1493.333,72.055C1528.889,70.264,1564.444,53.358,1600,46.377C1635.556,39.396,1671.111,42.34,1706.667,51.193C1742.222,60.047,1777.778,74.81,1813.333,69.848C1848.889,64.886,1884.444,40.2,1902.222,27.856L1920,15.513L1920,324L1902.222,324C1884.444,324,1848.889,324,1813.333,324C1777.778,324,1742.222,324,1706.667,324C1671.111,324,1635.556,324,1600,324C1564.444,324,1528.889,324,1493.333,324C1457.778,324,1422.222,324,1386.667,324C1351.111,324,1315.556,324,1280,324C1244.444,324,1208.889,324,1173.333,324C1137.778,324,1102.222,324,1066.667,324C1031.111,324,995.556,324,960,324C924.444,324,888.889,324,853.333,324C817.778,324,782.222,324,746.667,324C711.111,324,675.556,324,640,324C604.444,324,568.889,324,533.333,324C497.778,324,462.222,324,426.667,324C391.111,324,355.556,324,320,324C284.444,324,248.889,324,213.333,324C177.778,324,142.222,324,106.667,324C71.111,324,35.556,324,17.778,324L0,324Z"></path></g><g transform="translate(0, 864)"><path fill="rgb(120, 120, 120)" fill-opacity="1" d="M0,37.575L17.778,43.669C35.556,49.763,71.111,61.952,106.667,71.731C142.222,81.51,177.778,88.88,213.333,92.095C248.889,95.309,284.444,94.368,320,78.655C355.556,62.943,391.111,32.457,426.667,22.697C462.222,12.937,497.778,23.903,533.333,30.827C568.889,37.751,604.444,40.633,640,42.475C675.556,44.317,711.111,45.118,746.667,54.158C782.222,63.199,817.778,80.479,853.333,80.098C888.889,79.718,924.444,61.677,960,58.177C995.556,54.677,1031.111,65.718,1066.667,66.729C1102.222,67.739,1137.778,58.72,1173.333,49.259C1208.889,39.799,1244.444,29.897,1280,35.869C1315.556,41.84,1351.111,63.683,1386.667,74.183C1422.222,84.683,1457.778,83.839,1493.333,75.377C1528.889,66.914,1564.444,50.834,1600,45.966C1635.556,41.099,1671.111,47.445,1706.667,45.8C1742.222,44.156,1777.778,34.52,1813.333,41.572C1848.889,48.625,1884.444,72.365,1902.222,84.235L1920,96.105L1920,216L1902.222,216C1884.444,216,1848.889,216,1813.333,216C1777.778,216,1742.222,216,1706.667,216C1671.111,216,1635.556,216,1600,216C1564.444,216,1528.889,216,1493.333,216C1457.778,216,1422.222,216,1386.667,216C1351.111,216,1315.556,216,1280,216C1244.444,216,1208.889,216,1173.333,216C1137.778,216,1102.222,216,1066.667,216C1031.111,216,995.556,216,960,216C924.444,216,888.889,216,853.333,216C817.778,216,782.222,216,746.667,216C711.111,216,675.556,216,640,216C604.444,216,568.889,216,533.333,216C497.778,216,462.222,216,426.667,216C391.111,216,355.556,216,320,216C284.444,216,248.889,216,213.333,216C177.778,216,142.222,216,106.667,216C71.111,216,35.556,216,17.778,216L0,216Z"></path></g><g transform="translate(0, 972)"><path fill="rgb(130, 130, 130)" fill-opacity="1" d="M0,92.221L17.778,85.209C35.556,78.198,71.111,64.175,106.667,64.381C142.222,64.587,177.778,79.023,213.333,82.056C248.889,85.09,284.444,76.721,320,67.082C355.556,57.443,391.111,46.533,426.667,52.347C462.222,58.162,497.778,80.7,533.333,82.281C568.889,83.861,604.444,64.483,640,57.685C675.556,50.887,711.111,56.669,746.667,54.604C782.222,52.538,817.778,42.624,853.333,49.744C888.889,56.865,924.444,81.019,960,89.553C995.556,98.086,1031.111,90.999,1066.667,79.799C1102.222,68.6,1137.778,53.287,1173.333,47.081C1208.889,40.876,1244.444,43.777,1280,46.221C1315.556,48.664,1351.111,50.65,1386.667,53.772C1422.222,56.894,1457.778,61.151,1493.333,61.413C1528.889,61.675,1564.444,57.941,1600,54.362C1635.556,50.783,1671.111,47.358,1706.667,52.082C1742.222,56.806,1777.778,69.678,1813.333,73.05C1848.889,76.421,1884.444,70.291,1902.222,67.226L1920,64.16L1920,108L1902.222,108C1884.444,108,1848.889,108,1813.333,108C1777.778,108,1742.222,108,1706.667,108C1671.111,108,1635.556,108,1600,108C1564.444,108,1528.889,108,1493.333,108C1457.778,108,1422.222,108,1386.667,108C1351.111,108,1315.556,108,1280,108C1244.444,108,1208.889,108,1173.333,108C1137.778,108,1102.222,108,1066.667,108C1031.111,108,995.556,108,960,108C924.444,108,888.889,108,853.333,108C817.778,108,782.222,108,746.667,108C711.111,108,675.556,108,640,108C604.444,108,568.889,108,533.333,108C497.778,108,462.222,108,426.667,108C391.111,108,355.556,108,320,108C284.444,108,248.889,108,213.333,108C177.778,108,142.222,108,106.667,108C71.111,108,35.556,108,17.778,108L0,108Z"></path></g></g></svg>