<svg xmlns="http://www.w3.org/2000/svg" viewBox="0 0 1920 1080"><g transform="
          rotate(0 960 540) 
          translate(-0 -0)
          scale(1)
        "><rect width="1920" height="1080" fill="rgb(230, 251, 255)"></rect><g transform="translate(0, 0)"><path fill="rgb(227, 248, 255)" fill-opacity="1" d="M0,211.766L15.238,210.045C30.476,208.324,60.952,204.882,91.429,204.349C121.905,203.815,152.381,206.19,182.857,206.457C213.333,206.724,243.81,204.883,274.286,181.91C304.762,158.936,335.238,114.83,365.714,111.105C396.19,107.38,426.667,144.036,457.143,132.802C487.619,121.567,518.095,62.441,548.571,59.088C579.048,55.735,609.524,108.155,640,121.211C670.476,134.268,700.952,107.962,731.429,83.613C761.905,59.265,792.381,36.873,822.857,48.431C853.333,59.99,883.81,105.497,914.286,113.703C944.762,121.909,975.238,92.812,1005.714,78.248C1036.19,63.685,1066.667,63.654,1097.143,84.765C1127.619,105.875,1158.095,148.126,1188.571,170.818C1219.048,193.51,1249.524,196.643,1280,170.805C1310.476,144.967,1340.952,90.158,1371.429,67.574C1401.905,44.99,1432.381,54.631,1462.857,75.764C1493.333,96.896,1523.81,129.519,1554.286,152.598C1584.762,175.676,1615.238,189.21,1645.714,180.309C1676.19,171.407,1706.667,140.071,1737.143,108.188C1767.619,76.304,1798.095,43.874,1828.571,26.019C1859.048,8.164,1889.524,4.885,1904.762,3.245L1920,1.605L1920,1080L1904.762,1080C1889.524,1080,1859.048,1080,1828.571,1080C1798.095,1080,1767.619,1080,1737.143,1080C1706.667,1080,1676.19,1080,1645.714,1080C1615.238,1080,1584.762,1080,1554.286,1080C1523.81,1080,1493.333,1080,1462.857,1080C1432.381,1080,1401.905,1080,1371.429,1080C1340.952,1080,1310.476,1080,1280,1080C1249.524,1080,1219.048,1080,1188.571,1080C1158.095,1080,1127.619,1080,1097.143,1080C1066.667,1080,1036.19,1080,1005.714,1080C975.238,1080,944.762,1080,914.286,1080C883.81,1080,853.333,1080,822.857,1080C792.381,1080,761.905,1080,731.429,1080C700.952,1080,670.476,1080,640,1080C609.524,1080,579.048,1080,548.571,1080C518.095,1080,487.619,1080,457.143,1080C426.667,1080,396.19,1080,365.714,1080C335.238,1080,304.762,1080,274.286,1080C243.81,1080,213.333,1080,182.857,1080C152.381,1080,121.905,1080,91.429,1080C60.952,1080,30.476,1080,15.238,1080L0,1080Z"></path></g><g transform="translate(0, 216)"><path fill="rgb(224, 246, 255)" fill-opacity="1" d="M0,130.019L15.238,122.072C30.476,114.124,60.952,98.228,91.429,81.706C121.905,65.185,152.381,48.037,182.857,43.353C213.333,38.669,243.81,46.447,274.286,51.965C304.762,57.483,335.238,60.739,365.714,79.834C396.19,98.928,426.667,133.861,457.143,157.65C487.619,181.439,518.095,194.085,548.571,201.671C579.048,209.256,609.524,211.781,640,197.174C670.476,182.567,700.952,150.829,731.429,125.577C761.905,100.325,792.381,81.56,822.857,65.182C853.333,48.804,883.81,34.813,914.286,55.484C944.762,76.155,975.238,131.487,1005.714,163.3C1036.19,195.113,1066.667,203.408,1097.143,207.849C1127.619,212.29,1158.095,212.879,1188.571,200.569C1219.048,188.259,1249.524,163.051,1280,147.31C1310.476,131.569,1340.952,125.295,1371.429,112.475C1401.905,99.655,1432.381,80.29,1462.857,95.586C1493.333,110.882,1523.81,160.839,1554.286,181.672C1584.762,202.506,1615.238,194.215,1645.714,191.858C1676.19,189.501,1706.667,193.078,1737.143,188.928C1767.619,184.778,1798.095,172.902,1828.571,143.273C1859.048,113.645,1889.524,66.265,1904.762,42.575L1920,18.885L1920,864L1904.762,864C1889.524,864,1859.048,864,1828.571,864C1798.095,864,1767.619,864,1737.143,864C1706.667,864,1676.19,864,1645.714,864C1615.238,864,1584.762,864,1554.286,864C1523.81,864,1493.333,864,1462.857,864C1432.381,864,1401.905,864,1371.429,864C1340.952,864,1310.476,864,1280,864C1249.524,864,1219.048,864,1188.571,864C1158.095,864,1127.619,864,1097.143,864C1066.667,864,1036.19,864,1005.714,864C975.238,864,944.762,864,914.286,864C883.81,864,853.333,864,822.857,864C792.381,864,761.905,864,731.429,864C700.952,864,670.476,864,640,864C609.524,864,579.048,864,548.571,864C518.095,864,487.619,864,457.143,864C426.667,864,396.19,864,365.714,864C335.238,864,304.762,864,274.286,864C243.81,864,213.333,864,182.857,864C152.381,864,121.905,864,91.429,864C60.952,864,30.476,864,15.238,864L0,864Z"></path></g><g transform="translate(0, 432)"><path fill="rgb(220, 243, 255)" fill-opacity="1" d="M0,195.068L15.238,179.047C30.476,163.026,60.952,130.984,91.429,103.738C121.905,76.492,152.381,54.041,182.857,53.578C213.333,53.116,243.81,74.641,274.286,104.636C304.762,134.631,335.238,173.096,365.714,175.404C396.19,177.711,426.667,143.859,457.143,123.912C487.619,103.964,518.095,97.92,548.571,81.858C579.048,65.796,609.524,39.716,640,26.367C670.476,13.018,700.952,12.4,731.429,24.143C761.905,35.885,792.381,59.988,822.857,92.654C853.333,125.321,883.81,166.55,914.286,180.531C944.762,194.511,975.238,181.241,1005.714,151.53C1036.19,121.819,1066.667,75.666,1097.143,81.344C1127.619,87.023,1158.095,144.534,1188.571,153.517C1219.048,162.501,1249.524,122.957,1280,113.69C1310.476,104.422,1340.952,125.43,1371.429,126.725C1401.905,128.019,1432.381,109.599,1462.857,111.763C1493.333,113.926,1523.81,136.673,1554.286,147.738C1584.762,158.803,1615.238,158.186,1645.714,147.573C1676.19,136.96,1706.667,116.352,1737.143,110.405C1767.619,104.458,1798.095,113.173,1828.571,117.433C1859.048,121.693,1889.524,121.498,1904.762,121.401L1920,121.303L1920,648L1904.762,648C1889.524,648,1859.048,648,1828.571,648C1798.095,648,1767.619,648,1737.143,648C1706.667,648,1676.19,648,1645.714,648C1615.238,648,1584.762,648,1554.286,648C1523.81,648,1493.333,648,1462.857,648C1432.381,648,1401.905,648,1371.429,648C1340.952,648,1310.476,648,1280,648C1249.524,648,1219.048,648,1188.571,648C1158.095,648,1127.619,648,1097.143,648C1066.667,648,1036.19,648,1005.714,648C975.238,648,944.762,648,914.286,648C883.81,648,853.333,648,822.857,648C792.381,648,761.905,648,731.429,648C700.952,648,670.476,648,640,648C609.524,648,579.048,648,548.571,648C518.095,648,487.619,648,457.143,648C426.667,648,396.19,648,365.714,648C335.238,648,304.762,648,274.286,648C243.81,648,213.333,648,182.857,648C152.381,648,121.905,648,91.429,648C60.952,648,30.476,648,15.238,648L0,648Z"></path></g><g transform="translate(0, 648)"><path fill="rgb(217, 241, 255)" fill-opacity="1" d="M0,109.17L15.238,107.644C30.476,106.117,60.952,103.064,91.429,88.535C121.905,74.007,152.381,48.003,182.857,32.475C213.333,16.947,243.81,11.895,274.286,19.109C304.762,26.324,335.238,45.805,365.714,58.053C396.19,70.3,426.667,75.313,457.143,76.449C487.619,77.585,518.095,74.844,548.571,81.247C579.048,87.65,609.524,103.196,640,114.399C670.476,125.601,700.952,132.46,731.429,143.197C761.905,153.934,792.381,168.549,822.857,166.054C853.333,163.558,883.81,143.95,914.286,123.675C944.762,103.4,975.238,82.458,1005.714,82.98C1036.19,83.502,1066.667,105.488,1097.143,101.996C1127.619,98.503,1158.095,69.532,1188.571,77.395C1219.048,85.258,1249.524,129.955,1280,138.729C1310.476,147.503,1340.952,120.353,1371.429,126.401C1401.905,132.45,1432.381,171.697,1462.857,188.238C1493.333,204.779,1523.81,198.614,1554.286,181.308C1584.762,164.001,1615.238,135.554,1645.714,133.808C1676.19,132.063,1706.667,157.02,1737.143,154.97C1767.619,152.92,1798.095,123.862,1828.571,111.914C1859.048,99.965,1889.524,105.126,1904.762,107.706L1920,110.287L1920,432L1904.762,432C1889.524,432,1859.048,432,1828.571,432C1798.095,432,1767.619,432,1737.143,432C1706.667,432,1676.19,432,1645.714,432C1615.238,432,1584.762,432,1554.286,432C1523.81,432,1493.333,432,1462.857,432C1432.381,432,1401.905,432,1371.429,432C1340.952,432,1310.476,432,1280,432C1249.524,432,1219.048,432,1188.571,432C1158.095,432,1127.619,432,1097.143,432C1066.667,432,1036.19,432,1005.714,432C975.238,432,944.762,432,914.286,432C883.81,432,853.333,432,822.857,432C792.381,432,761.905,432,731.429,432C700.952,432,670.476,432,640,432C609.524,432,579.048,432,548.571,432C518.095,432,487.619,432,457.143,432C426.667,432,396.19,432,365.714,432C335.238,432,304.762,432,274.286,432C243.81,432,213.333,432,182.857,432C152.381,432,121.905,432,91.429,432C60.952,432,30.476,432,15.238,432L0,432Z"></path></g><g transform="translate(0, 864)"><path fill="rgb(214, 238, 255)" fill-opacity="1" d="M0,26.989L15.238,45.39C30.476,63.79,60.952,100.591,91.429,96.14C121.905,91.69,152.381,45.989,182.857,38.981C213.333,31.972,243.81,63.656,274.286,92.954C304.762,122.252,335.238,149.165,365.714,133.687C396.19,118.209,426.667,60.341,457.143,57.128C487.619,53.914,518.095,105.356,548.571,113.486C579.048,121.617,609.524,86.435,640,77.27C670.476,68.105,700.952,84.958,731.429,89.965C761.905,94.973,792.381,88.134,822.857,101.094C853.333,114.055,883.81,146.815,914.286,136.133C944.762,125.452,975.238,71.329,1005.714,67.992C1036.19,64.655,1066.667,112.104,1097.143,127.61C1127.619,143.117,1158.095,126.681,1188.571,132.603C1219.048,138.525,1249.524,166.805,1280,167.197C1310.476,167.589,1340.952,140.093,1371.429,109.163C1401.905,78.234,1432.381,43.872,1462.857,41.19C1493.333,38.509,1523.81,67.507,1554.286,97.435C1584.762,127.363,1615.238,158.221,1645.714,149.49C1676.19,140.759,1706.667,92.438,1737.143,69.099C1767.619,45.759,1798.095,47.4,1828.571,66.964C1859.048,86.528,1889.524,124.013,1904.762,142.756L1920,161.499L1920,216L1904.762,216C1889.524,216,1859.048,216,1828.571,216C1798.095,216,1767.619,216,1737.143,216C1706.667,216,1676.19,216,1645.714,216C1615.238,216,1584.762,216,1554.286,216C1523.81,216,1493.333,216,1462.857,216C1432.381,216,1401.905,216,1371.429,216C1340.952,216,1310.476,216,1280,216C1249.524,216,1219.048,216,1188.571,216C1158.095,216,1127.619,216,1097.143,216C1066.667,216,1036.19,216,1005.714,216C975.238,216,944.762,216,914.286,216C883.81,216,853.333,216,822.857,216C792.381,216,761.905,216,731.429,216C700.952,216,670.476,216,640,216C609.524,216,579.048,216,548.571,216C518.095,216,487.619,216,457.143,216C426.667,216,396.19,216,365.714,216C335.238,216,304.762,216,274.286,216C243.81,216,213.333,216,182.857,216C152.381,216,121.905,216,91.429,216C60.952,216,30.476,216,15.238,216L0,216Z"></path></g></g></svg>